<svg xmlns="http://www.w3.org/2000/svg" viewBox="0 0 1491.82 400.22"><defs><style>.cls-1{fill:#1864af;} .cls-2{fill: rgb(185, 45, 41);}</style></defs><g id="图层_2" data-name="图层 2"><g id="图层_4" data-name="图层 4"><rect class="cls-2" x="920.91" y="-32.89" width="100" height="466" transform="translate(1515.95 1028.15) rotate(-135)"/><polygon class="cls-1" points="1491.82 200.02 1421.11 129.31 1420.97 129.46 1291.62 0.11 1220.91 70.82 1350.26 200.17 1220.91 329.51 1291.62 400.22 1420.97 270.88 1421.06 270.97 1491.77 200.26 1491.68 200.17 1491.82 200.02"/><polygon class="cls-1" points="620.91 0.11 620.91 100.11 620.91 300.11 570.91 300.11 570.91 150.11 470.91 150.11 470.91 300.11 420.91 300.11 420.91 100.11 420.91 0.11 320.91 100.11 320.91 300.11 420.91 400.11 620.91 400.11 720.91 300.11 720.91 100.11 620.91 0.11"/><polygon class="cls-1" points="0 200.02 70.71 129.31 70.86 129.46 200.2 0.11 270.91 70.82 141.57 200.17 270.91 329.51 200.2 400.22 70.86 270.88 70.77 270.97 0.06 200.26 0.14 200.17 0 200.02"/></g></g></svg>